# Blender v2.79 (sub 0) OBJ File: ''
# www.blender.org
mtllib doublebox_fixed3.mtl
o rightWall.001
v -1.176874 -0.169540 0.945327
v 1.157976 -0.169540 0.945327
v 1.157976 2.165309 0.945327
v -1.176874 2.165309 0.945327
v -0.288628 0.718705 0.945327
v -0.288628 1.277064 0.945327
v 0.269731 1.277064 0.945327
v 0.269731 0.718705 0.945327
v -1.009449 -0.002115 -1.054673
v -1.009449 -0.002115 0.945327
v 0.990551 -0.002115 0.945327
v 0.990551 -0.002115 -1.054673
v -1.009449 -0.002117 5.997447
v 0.990551 -0.002117 5.997447
v 0.990551 1.997885 -1.054673
v 0.990551 1.997885 0.945327
v -1.009449 1.997885 0.945327
v -1.009449 1.997885 -1.054673
v 0.990551 1.997883 5.997447
v -1.009449 1.997883 5.997447
vn -1.0000 0.0000 0.0000
vn 0.0000 1.0000 0.0000
vn -0.0000 -0.0000 1.0000
vn 1.0000 0.0000 0.0000
vn 0.0000 0.0000 -1.0000
vn 0.0000 -1.0000 -0.0000
usemtl rightWall
s off
f 12//1 11//1 16//1 15//1
f 11//1 14//1 19//1 16//1
usemtl floor
f 9//2 10//2 11//2 12//2
f 10//2 13//2 14//2 11//2
usemtl leftWall
f 5//3 6//3 4//3 1//3
f 7//3 8//3 2//3 3//3
f 8//3 5//3 1//3 2//3
f 6//3 7//3 3//3 4//3
f 10//4 9//4 18//4 17//4
f 17//4 20//4 13//4 10//4
usemtl backWall
f 9//3 12//3 15//3 18//3
f 14//5 13//5 20//5 19//5
usemtl ceiling
f 15//6 16//6 17//6 18//6
f 16//6 19//6 20//6 17//6
o Light_rightWall.001
v -0.240000 1.980000 0.160000
v -0.240000 1.980000 -0.220000
v 0.230000 1.980000 -0.220000
v 0.230000 1.980000 0.160000
vn 0.0000 -1.0000 0.0000
usemtl light
s 1
f 21//7 22//7 23//7 24//7
