# Blender v2.80 (sub 75) OBJ File: 'portal_box.blend'
# www.blender.org
o Cube_Cube.001
v -10.000000 -10.000000 10.000000
v -10.000000 10.000000 10.000000
v -10.000000 -10.000000 -10.000000
v -10.000000 10.000000 -10.000000
v 10.000000 -10.000000 10.000000
v 10.000000 10.000000 10.000000
v 10.000000 -10.000000 -10.000000
v 10.000000 10.000000 -10.000000
v -1.000000 10.000000 1.000000
v 1.000000 10.000000 1.000000
v -1.000000 10.000000 0.160000
v -1.000000 10.000000 -1.000000
v 1.000000 10.000000 -1.000000
v 0.160000 10.000000 1.000000
v 1.000000 10.000000 -0.160000
v -0.160000 10.000000 -1.000000
v 0.160000 10.000000 1.000000
v 1.000000 10.000000 -0.160000
v -0.160000 10.000000 -1.000000
vt 0.625000 0.000000
vt 0.375000 0.250000
vt 0.375000 0.000000
vt 0.625000 0.250000
vt 0.375000 0.500000
vt 0.625000 0.500000
vt 0.375000 0.750000
vt 0.625000 0.750000
vt 0.375000 1.000000
vt 0.125000 0.750000
vt 0.125000 0.500000
vt 0.737500 0.623000
vt 0.737500 0.637500
vt 0.875000 0.500000
vt 0.762500 0.627000
vt 0.762500 0.612500
vt 0.625000 1.000000
vt 0.737500 0.612500
vt 0.762500 0.637500
vt 0.875000 0.750000
vt 0.748000 0.637500
vt 0.752000 0.612500
vn -1.0000 0.0000 0.0000
vn 0.0000 0.0000 -1.0000
vn 1.0000 0.0000 0.0000
vn 0.0000 0.0000 1.0000
vn 0.0000 -1.0000 0.0000
vn 0.0000 1.0000 0.0000
s off
f 2/1/1 3/2/1 1/3/1
f 4/4/2 7/5/2 3/2/2
f 8/6/3 5/7/3 7/5/3
f 6/8/4 1/9/4 5/7/4
f 7/5/5 1/10/5 3/11/5
f 6/8/6 18/12/6 10/13/6
f 4/14/6 11/15/6 12/16/6
f 2/1/1 4/4/1 3/2/1
f 4/4/2 8/6/2 7/5/2
f 8/6/3 6/8/3 5/7/3
f 6/8/4 2/17/4 1/9/4
f 7/5/5 5/7/5 1/10/5
f 6/8/6 8/6/6 18/12/6
f 8/6/6 13/18/6 18/12/6
f 9/19/6 11/15/6 2/20/6
f 10/13/6 17/21/6 6/8/6
f 17/21/6 9/19/6 2/20/6
f 6/8/6 17/21/6 2/20/6
f 4/14/6 2/20/6 11/15/6
f 12/16/6 19/22/6 4/14/6
f 19/22/6 13/18/6 8/6/6
f 4/14/6 19/22/6 8/6/6
